<?xml version="1.0"?>
<svg xmlns="http://www.w3.org/2000/svg" xmlns:xlink="http://www.w3.org/1999/xlink" xmlns:svgjs="http://svgjs.com/svgjs" version="1.1" width="512" height="512" x="0" y="0" viewBox="0 0 512 512.001" style="enable-background:new 0 0 512 512" xml:space="preserve" class=""><g transform="matrix(-1.8369701987210297e-16,-1,1,-1.8369701987210297e-16,0,512)"><path xmlns="http://www.w3.org/2000/svg" d="m370.257812 140.324219c-31.691406-31.617188-66.410156-51.230469-100.40625-56.726563-39.414062-6.367187-76.339843 6.320313-106.839843 36.746094l-124.621094 125.261719c-25.113281 25.058593-38.390625 55.140625-38.390625 87 0 40.214843 20.226562 81.644531 58.484375 119.8125l1.257813 1.253906c31.691406 31.617187 66.410156 51.234375 100.402343 56.726563 6.628907 1.070312 13.183594 1.601562 19.652344 1.601562 31.996094 0 61.808594-13.027344 87.132813-38.292969 7.820312-7.800781 7.835937-20.464843.035156-28.285156-7.804688-7.820313-20.464844-7.832031-28.285156-.03125-58.941407 58.800781-125.015626 5.578125-150.6875-20.03125l-1.253907-1.253906c-30.140625-30.066407-46.738281-62.5625-46.738281-91.5 0-21.300781 8.964844-41.046875 26.695312-58.734375l67.78125-68.128906c13.996094 9.066406 56.101563 37.820312 102.390626 83.757812 33.117187 33.167969 57.269531 63.949219 72.371093 85.066406l-1.878906 1.890625c-7.78125 7.839844-7.738281 20.503907.101563 28.285157 7.835937 7.78125 20.5 7.742187 28.28125-.097657l55.863281-56.253906c25.117187-25.058594 38.390625-55.140625 38.390625-87 0-40.214844-20.222656-81.644531-58.480469-119.8125zm-178.941406 8.285156c50.601563-50.484375 106.460938-18.398437 137.496094 7.894531l-84.761719 84.558594c-34.476562-31.667969-64.425781-53.257812-80.777343-64.265625zm171.972656 171.53125-25.488281 25.664063c-14.855469-20.308594-36.570312-47.507813-65.054687-76.871094l84.253906-84.046875c21.398438 25.65625 33 52.324219 33 76.503906 0 21.300781-8.964844 41.046875-26.710938 58.75zm-31.289062-264.140625v-36c0-11.046875 8.953125-20 20-20s20 8.953125 20 20v36c0 11.046875-8.953125 20-20 20s-20-8.953125-20-20zm180 104c0 11.046875-8.957031 20-20 20h-36c-11.046875 0-20-8.953125-20-20s8.953125-20 20-20h36c11.042969 0 20 8.953125 20 20zm-101.492188-63.214844c-7.613281-8-7.296874-20.660156.703126-28.273437l26-24.738281c8.003906-7.617188 20.660156-7.300782 28.277343.699218 7.613281 8.003906 7.296875 20.660156-.703125 28.277344l-26 24.738281c-3.871094 3.683594-8.832031 5.511719-13.785156 5.511719-5.285156 0-10.558594-2.082031-14.492188-6.214844zm0 0" fill="#000000" data-original="#000000" style="" class=""/></g></svg>
